<svg width="140" height="140" viewBox="0 0 140 140" fill="none" xmlns="http://www.w3.org/2000/svg">
  <filter id="shadow" x="0" y="0" width="140" height="140" color-interpolation-filters="sRGB">
    <feDropShadow dx="0" dy="9" stdDeviation="7" flood-color="#503342" flood-opacity=".16"/>
  </filter>
  <g filter="url(#shadow)">
    <circle cx="70" cy="62" r="52" fill="#ff9846"/>
    <path d="M70 94C55 94 45 84 45 70C45 60 51 51 56 44C55 54 63 58 68 49C72 41 68 34 68 34C82 42 87 52 84 64C89 61 93 56 94 50C101 57 104 64 104 73C104 86 90 94 70 94Z" fill="#fff"/>
    <path d="M76 84C66 84 61 79 61 72C61 66 65 61 69 57C69 64 75 66 78 61C80 57 78 53 78 53C88 59 91 66 88 75C91 73 94 70 95 67C97 77 88 84 76 84Z" fill="#ff9846"/>
  </g>
</svg>
